<svg width="608" height="102" viewBox="0 0 608 102" fill="none" xmlns="http://www.w3.org/2000/svg">
<path d="M330.935 79.6045L315.042 19.7926H318.973L332.986 73.1106L348.708 19.7926H352.638L368.104 73.367L382.203 19.7926H385.962L369.984 79.6045H366.224L350.588 25.5175L334.695 79.6045H330.935Z" fill="#22222D"/>
<path d="M389.806 79.6045L414.756 19.7926H419.626L444.491 79.6045H440.219L431.931 59.3539H402.281L393.907 79.6045H389.806ZM403.734 55.8506H430.478L417.148 23.4668L403.734 55.8506Z" fill="#22222D"/>
<path d="M464.403 79.6045V54.6544L440.991 19.7926H445.691L466.454 51.0657L487.303 19.7926H491.831L468.334 54.8253V79.6045H464.403Z" fill="#22222D"/>
<path d="M24.6694 79.6045V55.2525L0.915527 19.7926H8.60562L28.1727 49.4422L47.6542 19.7926H55.088L31.2487 55.5089V79.6045H24.6694Z" fill="#22222D"/>
<path d="M50.0187 79.6045L74.7979 19.7926H82.7443L107.353 79.6045H100.175L92.656 60.8065H64.459L56.8543 79.6045H50.0187ZM66.766 55.1671H90.349L78.5575 25.8593L66.766 55.1671Z" fill="#22222D"/>
<path d="M144.569 80.5444C140.24 80.5444 136.195 79.7754 132.436 78.2374C128.676 76.6424 125.372 74.4493 122.524 71.6581C119.676 68.8099 117.454 65.5345 115.859 61.8318C114.321 58.0722 113.552 54.0278 113.552 49.6986C113.552 45.3693 114.321 41.3534 115.859 37.6507C117.454 33.8911 119.676 30.6157 122.524 27.8245C125.372 24.9763 128.676 22.7832 132.436 21.2452C136.195 19.6502 140.24 18.8527 144.569 18.8527C147.702 18.8527 150.692 19.2515 153.541 20.049C156.446 20.7895 159.123 21.9003 161.572 23.3813C164.079 24.8054 166.3 26.5713 168.237 28.679L163.88 33.293C161.544 30.6157 158.667 28.565 155.25 27.1409C151.832 25.6599 148.271 24.9194 144.569 24.9194C141.094 24.9194 137.876 25.546 134.913 26.7992C131.951 28.0524 129.36 29.8182 127.138 32.0968C124.973 34.3184 123.264 36.9387 122.011 39.9578C120.815 42.9199 120.217 46.1668 120.217 49.6986C120.217 53.1733 120.815 56.4203 122.011 59.4393C123.264 62.4584 125.002 65.1072 127.223 67.3858C129.445 69.6074 132.037 71.3448 134.999 72.598C138.018 73.8512 141.265 74.4778 144.74 74.4778C148.442 74.4778 151.974 73.7657 155.335 72.3416C158.696 70.8606 161.516 68.8384 163.794 66.275L168.066 70.7182C166.073 72.7688 163.823 74.5347 161.316 76.0158C158.867 77.4968 156.218 78.6361 153.37 79.4336C150.522 80.1741 147.588 80.5444 144.569 80.5444Z" fill="#22222D"/>
<path d="M183.163 79.6045V19.7926H189.742V46.5371H224.518V19.7926H231.098V79.6045H224.518V52.4328H189.742V79.6045H183.163Z" fill="#22222D"/>
<path d="M265.861 79.6045V25.6884H244.243V19.7926H294.058V25.6884H272.44V79.6045H265.861Z" fill="#22222D"/>
<path d="M539.098 35.4255C537.012 38.5257 535.897 42.1715 535.893 45.9023C535.88 48.3859 536.361 50.8475 537.309 53.1448C538.258 55.442 539.654 57.5294 541.418 59.286C543.182 61.0427 545.279 62.4338 547.586 63.379C549.894 64.3241 552.367 64.8045 554.862 64.7923C558.611 64.7903 562.275 63.6824 565.391 61.6087C568.507 59.5349 570.935 56.5884 572.369 53.1414C573.803 49.6944 574.178 45.9018 573.447 42.2426C572.716 38.5835 570.912 35.2222 568.262 32.5834C565.612 29.9447 562.236 28.1469 558.56 27.4174C554.884 26.6878 551.073 27.0592 547.609 28.4845C544.145 29.9099 541.183 32.3253 539.098 35.4255Z" fill="#22222D"/>
<path fill-rule="evenodd" clip-rule="evenodd" d="M307.564 101.364L604.376 101.364C607.746 101.364 607.746 101.354 607.746 98.1022V3.58075C607.746 3.16709 607.751 2.80477 607.756 2.48751C607.772 1.34789 607.78 0.789655 607.505 0.521644C607.241 0.264311 606.717 0.274533 605.688 0.294571C605.359 0.300973 604.979 0.308377 604.54 0.308377L307.564 0.318169V4.40321C366.909 4.47098 443.447 4.46867 501.623 4.39629C504.255 4.38609 504.89 5.10989 504.89 7.65846C504.829 36.3758 504.829 65.0829 504.829 93.79V95.0643C504.9 96.4711 504.286 97.0522 502.852 96.9911C501.602 96.9503 500.353 96.9639 499.103 96.9775C498.478 96.9843 497.853 96.9911 497.229 96.9911C440.522 96.9516 365.496 96.9503 307.564 96.9872V101.364ZM575.848 59.1859C578.532 55.2509 579.781 50.7757 579.781 44.0372C579.894 32.3342 568.269 20.6311 553.724 21.2224C538.135 21.8545 526.397 37.1969 530.628 52.1111C535.329 68.8094 553.694 75.8842 568.525 66.638C570.072 65.6797 570.881 66.0365 571.977 67.1477C573.754 68.9496 575.556 70.7276 577.359 72.5055L577.36 72.5069L577.362 72.509L577.363 72.5101C579.975 75.0861 582.586 77.6616 585.118 80.3085C586.716 81.96 587.699 81.2668 588.764 80.0537C588.957 79.8344 589.172 79.6288 589.383 79.4274C590.339 78.5142 591.206 77.6861 589.461 76.0575C586.995 73.7501 584.611 71.3587 582.227 68.9676C580.293 67.0275 578.358 65.0873 576.381 63.1923C575.008 61.867 574.65 60.9496 575.848 59.1859Z" fill="#22222D"/>
</svg>
