<svg width="16" height="16" viewBox="0 0 16 16" fill="none" xmlns="http://www.w3.org/2000/svg">
<path d="M4.43774 10.3837C4.5646 11.8126 5.7346 12.8266 7.51574 12.9577V14H8.40974V12.9577C10.3555 12.8043 11.5623 11.7251 11.5623 10.1291C11.5623 8.76629 10.7506 7.97771 9.0286 7.53371L8.40974 7.37343V4.11457C9.37146 4.20886 10.0203 4.72657 10.184 5.49971H11.444C11.3017 4.12829 10.124 3.14429 8.40974 3.03543V2H7.51574V3.05686C5.85374 3.254 4.71289 4.31857 4.71289 5.762C4.71289 7.00829 5.54089 7.89029 6.99374 8.26229L7.5166 8.40114V11.8563C6.53174 11.7106 5.85374 11.1706 5.69003 10.3837H4.43774ZM7.34432 7.09571C6.45032 6.87029 5.97289 6.38857 5.97289 5.71057C5.97289 4.90143 6.57632 4.304 7.51574 4.14371V7.13943L7.34432 7.09657V7.09571ZM8.70803 8.70029C9.81117 8.97714 10.2955 9.43657 10.2955 10.2166C10.2955 11.1569 9.58746 11.7834 8.40974 11.8786V8.62571L8.70803 8.69943V8.70029Z" fill="#22222D"/>
</svg>
