<svg width="20" height="20" viewBox="0 0 20 20" fill="none" xmlns="http://www.w3.org/2000/svg">
<path d="M7.708 4.271c0 0.185-0.055 0.367-0.158 0.521s-0.249 0.274-0.421 0.345c-0.171 0.071-0.36 0.090-0.542 0.053s-0.349-0.125-0.48-0.257c-0.131-0.131-0.22-0.298-0.257-0.48s-0.018-0.37 0.053-0.542c0.071-0.171 0.191-0.318 0.345-0.421s0.335-0.158 0.521-0.158c0.249 0 0.487 0.099 0.663 0.275s0.275 0.414 0.275 0.663zM12.396 5.208c0.185 0 0.367-0.055 0.521-0.158s0.274-0.249 0.345-0.421c0.071-0.171 0.089-0.36 0.053-0.542s-0.126-0.349-0.257-0.48c-0.131-0.131-0.298-0.22-0.48-0.257s-0.37-0.018-0.542 0.053c-0.171 0.071-0.318 0.191-0.421 0.345s-0.158 0.335-0.158 0.521c0 0.249 0.099 0.487 0.275 0.663s0.414 0.275 0.663 0.275zM6.771 8.646c-0.185 0-0.367 0.055-0.521 0.158s-0.274 0.249-0.345 0.421c-0.071 0.171-0.090 0.36-0.053 0.542s0.125 0.349 0.257 0.48 0.298 0.22 0.48 0.257c0.182 0.036 0.37 0.018 0.542-0.053s0.318-0.191 0.421-0.345 0.158-0.335 0.158-0.521c0-0.249-0.099-0.487-0.275-0.663s-0.414-0.275-0.663-0.275zM12.396 8.646c-0.185 0-0.367 0.055-0.521 0.158s-0.274 0.249-0.345 0.421c-0.071 0.171-0.089 0.36-0.053 0.542s0.126 0.349 0.257 0.48 0.298 0.22 0.48 0.257c0.182 0.036 0.37 0.018 0.542-0.053s0.318-0.191 0.421-0.345 0.158-0.335 0.158-0.521c0-0.249-0.099-0.487-0.275-0.663s-0.414-0.275-0.663-0.275zM6.771 13.958c-0.185 0-0.367 0.055-0.521 0.158s-0.274 0.249-0.345 0.421c-0.071 0.171-0.090 0.36-0.053 0.542s0.125 0.349 0.257 0.48 0.298 0.22 0.48 0.257c0.182 0.036 0.37 0.018 0.542-0.053s0.318-0.191 0.421-0.345 0.158-0.335 0.158-0.521c0-0.249-0.099-0.487-0.275-0.663s-0.414-0.275-0.663-0.275zM12.396 13.958c-0.185 0-0.367 0.055-0.521 0.158s-0.274 0.249-0.345 0.421c-0.071 0.171-0.089 0.36-0.053 0.542s0.126 0.349 0.257 0.48 0.298 0.22 0.48 0.257c0.182 0.036 0.37 0.018 0.542-0.053s0.318-0.191 0.421-0.345 0.158-0.335 0.158-0.521c0-0.249-0.099-0.487-0.275-0.663s-0.414-0.275-0.663-0.275z" fill="#666A75"/>
</svg>
