<svg width="48" height="48" viewBox="0 0 48 48" fill="none" xmlns="http://www.w3.org/2000/svg">
<path d="M39 15H33V10.5C33 8.11305 32.0518 5.82387 30.364 4.13604C28.6761 2.44821 26.3869 1.5 24 1.5C21.6131 1.5 19.3239 2.44821 17.636 4.13604C15.9482 5.82387 15 8.11305 15 10.5V15H9C8.20435 15 7.44129 15.3161 6.87868 15.8787C6.31607 16.4413 6 17.2044 6 18V39C6 39.7956 6.31607 40.5587 6.87868 41.1213C7.44129 41.6839 8.20435 42 9 42H39C39.7956 42 40.5587 41.6839 41.1213 41.1213C41.6839 40.5587 42 39.7956 42 39V18C42 17.2044 41.6839 16.4413 41.1213 15.8787C40.5587 15.3161 39.7956 15 39 15ZM25.5 29.7431V34.5C25.5 34.8978 25.342 35.2794 25.0607 35.5607C24.7794 35.842 24.3978 36 24 36C23.6022 36 23.2206 35.842 22.9393 35.5607C22.658 35.2794 22.5 34.8978 22.5 34.5V29.7431C21.4992 29.3893 20.6557 28.693 20.1186 27.7774C19.5814 26.8618 19.3853 25.7858 19.5648 24.7395C19.7443 23.6933 20.2879 22.7442 21.0995 22.06C21.9111 21.3758 22.9385 21.0005 24 21.0005C25.0615 21.0005 26.0889 21.3758 26.9005 22.06C27.7121 22.7442 28.2557 23.6933 28.4352 24.7395C28.6147 25.7858 28.4186 26.8618 27.8814 27.7774C27.3443 28.693 26.5008 29.3893 25.5 29.7431ZM30 15H18V10.5C18 8.9087 18.6321 7.38258 19.7574 6.25736C20.8826 5.13214 22.4087 4.5 24 4.5C25.5913 4.5 27.1174 5.13214 28.2426 6.25736C29.3679 7.38258 30 8.9087 30 10.5V15Z" fill="#121216"/>
</svg>
